<mxfile host="app.diagrams.net" modified="2021-11-05T16:50:50.029Z" agent="5.0 (Windows NT 10.0; Win64; x64) AppleWebKit/537.36 (KHTML, like Gecko) Chrome/95.0.4638.69 Safari/537.36" etag="9yei3r9vZ1DjVI8l6YUc" version="15.6.8" type="github">
  <diagram id="-ZOb-uAzHQ0xDcyMwZg8" name="Page-1">
    <mxGraphModel dx="868" dy="454" grid="1" gridSize="10" guides="1" tooltips="1" connect="1" arrows="1" fold="1" page="1" pageScale="1" pageWidth="850" pageHeight="1100" math="0" shadow="0">
      <root>
        <mxCell id="0" />
        <mxCell id="1" parent="0" />
      </root>
    </mxGraphModel>
  </diagram>
</mxfile>
